HIERARCHY
ROOT ui
{
	 OFFSET 0 0 0
	 CHANNELS 3 XPosition YPosition Z Position
	 EndSite
	 {
	 OFFSET 0 -1 0
	 }
}
ROOT li
{
	 OFFSET 0 0 0
	 CHANNELS 3 XPosition YPosition Z Position
	 EndSite
	 {
	 OFFSET 0 -1 0
	 }
}
ROOT ul
{
	 OFFSET 0 0 0
	 CHANNELS 3 XPosition YPosition Z Position
	 EndSite
	 {
	 OFFSET 0 -1 0
	 }
}
ROOT ll
{
	 OFFSET 0 0 0
	 CHANNELS 3 XPosition YPosition Z Position
	 EndSite
	 {
	 OFFSET 0 -1 0
	 }
}
ROOT tt
{
	 OFFSET 0 0 0
	 CHANNELS 3 XPosition YPosition Z Position
	 EndSite
	 {
	 OFFSET 0 -1 0
	 }
}
ROOT tb
{
	 OFFSET 0 0 0
	 CHANNELS 3 XPosition YPosition Z Position
	 EndSite
	 {
	 OFFSET 0 -1 0
	 }
}
ROOT td
{
	 OFFSET 0 0 0
	 CHANNELS 3 XPosition YPosition Z Position
	 EndSite
	 {
	 OFFSET 0 -1 0
	 }
}
ROOT v
{
	 OFFSET 0 0 0
	 CHANNELS 3 XPosition YPosition Z Position
	 EndSite
	 {
	 OFFSET 0 -1 0
	 }
}
ROOT bn
{
	 OFFSET 0 0 0
	 CHANNELS 3 XPosition YPosition Z Position
	 EndSite
	 {
	 OFFSET 0 -1 0
	 }
}
MOTION
Frames: 13
Frame Time: 0.002
9.321380257606507E-4	0.0020397050380706787	0		0.5064553527832031	-2.480362060546875	0		-1.1416376953125	0.28810638427734375	0		-0.6683855590820312	-2.866949462890625	0		1.74016650390625	-0.640388427734375	0		3.326812255859375	-0.19085833740234376	0		4.84190234375	-0.11147662353515625	0		5.86957470703125	0.3050956726074219	0		-0.38045849609375	5.91117431640625	0		
0.006025031089782715	-0.002001131057739258	0		0.5085111694335938	-2.4773916015625	0		-1.1764288330078125	0.29261557006835937	0		-0.6775209350585938	-2.87778369140625	0		1.753634033203125	-0.6116171875	0		3.3559306640625	-0.1923613586425781	0		4.85327294921875	-0.09283451080322265	0		5.8618271484375	0.3048570556640625	0		-0.3449746704101562	5.91478173828125	0		
0.013222039222717285	0.0039227790832519534	0		0.48763528442382814	-2.468143798828125	0		-1.12125927734375	0.2949986877441406	0		-0.6494063110351562	-2.868089111328125	0		1.7991473388671875	-0.578245361328125	0		3.390686767578125	-0.14092724609375	0		4.8846376953125	-0.07342864227294922	0		5.86975732421875	0.3041788024902344	0		-0.29537649536132815	5.9312001953125	0		
0.0012871179580688477	0.0020725200176239015	0		0.5006495971679688	-2.466323974609375	0		-1.1702542724609375	0.2876539306640625	0		-0.6983037719726563	-2.8574541015625	0		1.8434583740234376	-0.5588644409179687	0		3.403644775390625	-0.15122222900390625	0		4.90289599609375	-0.05984716796875	0		5.86493994140625	0.3264118957519531	0		-0.3452337341308594	5.91683544921875	0		
-0.0676689453125	0.0029213449954986572	0		0.47463217163085936	-2.46402783203125	0		-1.1642689208984376	0.2826079406738281	0		-0.6515144653320313	-2.8700263671875	0		1.87688671875	-0.5263511352539062	0		3.43694970703125	-0.12976048278808594	0		4.92110546875	-0.04624825668334961	0		5.86131103515625	0.30885910034179687	0		-0.31093673706054686	5.921412109375	0		
0.0022012178897857664	-0.005975318908691406	0		0.49161553955078124	-2.4582783203125	0		-1.164285888671875	0.28261404418945313	0		-0.6865753173828125	-2.86659716796875	0		1.8871719970703125	-0.5005530090332031	0		3.457094970703125	-0.11612790679931641	0		4.938228515625	-0.034617637634277346	0		5.86129150390625	0.3085440673828125	0		-0.34486318969726565	5.91682080078125	0		
-0.07082394409179688	-1.0384000092744827E-4	0		0.47643887329101564	-2.461140869140625	0		-1.14933740234375	0.2854073791503906	0		-0.6467015991210937	-2.86512548828125	0		1.908417724609375	-0.47289501953125	0		3.479460693359375	-0.07951316833496094	0		4.9601826171875	-0.031028644561767578	0		5.86487890625	0.32546841430664064	0		-0.3297194213867187	5.92659765625	0		
0.009035429000854493	8.362960219383239E-4	0		0.5082996520996094	-2.457606201171875	0		-1.1444439697265625	0.2892982177734375	0		-0.7137499389648437	-2.85333935546875	0		1.9398013916015624	-0.4293668212890625	0		3.509285400390625	-0.08098641204833984	0		4.98127197265625	-0.011407358169555664	0		5.87188720703125	0.32330621337890625	0		-0.17759942626953126	5.94263818359375	0		
0.005782166004180908	-0.0022044379711151124	0		0.49512716674804685	-2.453523681640625	0		-1.1446590576171876	0.2892232666015625	0		-0.6529293823242187	-2.850179931640625	0		1.9631583251953124	-0.3837429504394531	0		3.550441650390625	-0.05159153747558594	0		4.9951298828125	-0.005677102088928222	0		5.8680869140625	0.30767816162109374	0		-0.3451343994140625	5.9166533203125	0		
0.005522362232208252	-0.002303670883178711	0		0.4682305297851562	-2.42528515625	0		-1.1449200439453124	0.2891190490722656	0		-0.6979981689453125	-2.8357197265625	0		1.9781492919921875	-0.3640230712890625	0		3.552294677734375	-0.04270120620727539	0		5.01284375	-0.00797994089126587	0		5.86790185546875	0.307550537109375	0		-0.31135983276367185	5.921126953125	0		
-0.0018559509515762328	-0.009336384773254394	0		0.46592782592773435	-2.428375732421875	0		-1.1392774658203124	0.2839112854003906	0		-0.6483630981445313	-2.844472900390625	0		2.0161590576171875	-0.34059982299804686	0		3.56415283203125	-0.03093501663208008	0		5.0207392578125	0.00685168981552124	0		5.8605625	0.307667236328125	0		-0.3798468933105469	5.91085400390625	0		
0.007956766128540039	3.955020010471344E-4	0		0.4734547729492187	-2.444609375	0		-1.1345316162109376	0.2886877746582031	0		-0.7124491577148437	-2.829827392578125	0		2.0212772216796875	-0.3067749938964844	0		3.60683837890625	-0.03155731391906738	0		5.0324765625	0.010639639854431152	0		5.8711201171875	0.32282913208007813	0		-0.34520602416992185	5.91426806640625	0		
0.011672466278076173	0.0031826629638671876	0		0.4755323486328125	-2.41678955078125	0		-1.130809326171875	0.29245147705078123	0		-0.6696536865234375	-2.825541259765625	0		2.08845556640625	-0.26773513793945314	0		3.6330517578125	0.011025976181030274	0		5.06321484375	0.015192681312561036	0		5.8708916015625	0.32275628662109374	0		-0.3305123291015625	5.92491015625	0		
